<?xml version="1.0" encoding="utf-8"?>
<!-- Generator: Adobe Illustrator 26.2.1, SVG Export Plug-In . SVG Version: 6.00 Build 0)  -->
<svg version="1.1"
	 id="svg2" xmlns:cc="http://creativecommons.org/ns#" xmlns:dc="http://purl.org/dc/elements/1.1/" xmlns:rdf="http://www.w3.org/1999/02/22-rdf-syntax-ns#" xmlns:svg="http://www.w3.org/2000/svg"
	 xmlns="http://www.w3.org/2000/svg" xmlns:xlink="http://www.w3.org/1999/xlink" x="0px" y="0px" viewBox="0 0 1026.5 353.5"
	 style="enable-background:new 0 0 1026.5 353.5;" xml:space="preserve">
<style type="text/css">
	.st0{clip-path:url(#SVGID_00000153703108965260464350000013314345057263895229_);}
	.st1{fill:#FFFFFF;}
	.st2{fill:none;stroke:#FFFFFF;stroke-width:2;stroke-miterlimit:10;}
</style>
<g id="g10" transform="matrix(1.3333333,0,0,-1.3333333,-263.24719,616.01492)">
	<g id="g12">
		<g>
			<defs>
				<rect id="SVGID_1_" x="-194.1" y="-109.9" width="1553" height="879.3"/>
			</defs>
			<clipPath id="SVGID_00000003825029569611581570000009576321886392452487_">
				<use xlink:href="#SVGID_1_"  style="overflow:visible;"/>
			</clipPath>
			<g id="g14" style="clip-path:url(#SVGID_00000003825029569611581570000009576321886392452487_);">
				<g id="g20" transform="translate(217.0429,217.4342)">
					<path id="path22" class="st1" d="M0,0h-12.1v6.9H0.7V13h-20.3v-33h21v6.1h-13.5v7.8H0V0z M9.2,13V-5.4
						c0-10.5,4.9-15.1,13.2-15.1c8.6,0,13.7,4.8,13.7,15V13h-7.4V-6c0-5.8-2.2-8.6-6.1-8.6c-3.8,0-6,2.9-6,8.6v19L9.2,13z M45.5-20
						h7.4v13h2.3c3,0,4.5-1.2,5.3-5.3c1-4.1,1.8-6.8,2.3-7.7h7.6c-0.6,1.3-1.7,5.6-2.7,9.3c-0.8,3-2.1,5.2-4.4,6.2v0.1
						c2.8,1,5.8,3.9,5.8,8.1c0,3-1.1,5.3-3,6.9c-2.3,1.9-5.8,2.6-10.7,2.6c-4,0-7.5-0.3-9.9-0.7L45.5-20z M52.9,7.4
						c0.5,0.1,1.6,0.2,3.4,0.2c3.4,0,5.5-1.6,5.5-4.6c0-2.9-2.2-4.7-5.9-4.7h-2.9V7.4z M91.7,13.5c-9.7,0-16-7.4-16-17.3
						c0-9.4,5.7-16.8,15.5-16.8c9.6,0,16.2,6.5,16.2,17.4C107.3,5.9,101.8,13.5,91.7,13.5 M91.5,7.6c5.1,0,8-5.1,8-11
						c0-6.4-2.9-11.2-7.9-11.2c-5,0-8,4.6-8,11C83.5,2.8,86.4,7.6,91.5,7.6 M115.2-20h7.4v11.8c0.7-0.1,1.6-0.1,2.5-0.1
						c4.4,0,8.2,1.1,10.7,3.5c2,1.9,3,4.6,3,7.8s-1.4,6-3.5,7.6c-2.2,1.8-5.5,2.6-10.1,2.6c-4.5,0-7.8-0.3-10.1-0.7V-20z M122.6,7.3
						c0.5,0.1,1.6,0.3,3.1,0.3c3.7,0,5.8-1.8,5.8-4.8c0-3.4-2.4-5.4-6.4-5.4c-1.1,0-1.9,0-2.5,0.2L122.6,7.3z M165.5,0h-12.1v6.9
						h12.9V13h-20.3v-33h21v6.1h-13.5v7.8h12.1V0z M192.3-11.5l2.5-8.5h8l-10.2,33h-9.8l-10.1-33h7.7l2.3,8.5L192.3-11.5z M184-6
						l2,7c0.5,1.9,1,4.4,1.5,6.4h0.1c0.5-2,1.1-4.4,1.7-6.4l2.1-7L184-6z M216.6-20v9.9c0,5.4-0.1,10-0.3,14.4l0.1,0
						c1.6-3.9,3.8-8.1,5.7-11.6l7-12.7h7.8v33h-6.8V3.3c0-4.9,0.1-9.4,0.6-13.7h-0.1c-1.5,3.7-3.4,7.8-5.4,11.3L218.4,13h-8.7v-33
						L216.6-20z M258.2-20h20.6v6.3h-13.1V13h-7.5V-20z M303.9-11.5l2.5-8.5h8l-10.2,33h-9.8l-10.1-33h7.7l2.3,8.5H303.9z M295.6-6
						l2,7c0.5,1.9,1,4.4,1.5,6.4h0.1c0.5-2,1.1-4.4,1.7-6.4l2.1-7L295.6-6z M321.3-19.9c1.7-0.2,4.4-0.5,8.1-0.5
						c6.6,0,10.6,1.1,13,3c2.1,1.7,3.4,4,3.4,7c0,4.3-2.8,7.1-6.5,8.1v0.1c3.7,1.4,5.4,4.1,5.4,7c0,3-1.7,5.2-4,6.5
						c-2.4,1.4-5.2,1.9-9.7,1.9c-3.7,0-7.7-0.3-9.6-0.7L321.3-19.9z M328.7,7.6c0.6,0.1,1.6,0.2,3.2,0.2c3.4,0,5.3-1.3,5.3-3.8
						c0-2.4-2.1-4.1-6-4.1h-2.4V7.6z M328.7-5.4h2.5c3.7,0,6.7-1.3,6.7-4.7c0-3.5-3-4.7-6.4-4.7c-1.3,0-2.2,0-2.9,0.1V-5.4z
						 M367.9,13.5c-9.7,0-16-7.4-16-17.3c0-9.4,5.7-16.8,15.5-16.8c9.6,0,16.2,6.5,16.2,17.4C383.6,5.9,378,13.5,367.9,13.5
						 M367.7,7.6c5.1,0,8-5.1,8-11c0-6.4-2.9-11.2-7.9-11.2c-5,0-8,4.6-8,11C359.7,2.8,362.7,7.6,367.7,7.6 M391.2,13V-5.4
						c0-10.5,4.9-15.1,13.2-15.1c8.6,0,13.7,4.8,13.7,15V13h-7.4V-6c0-5.8-2.2-8.6-6.1-8.6c-3.8,0-6,2.9-6,8.6v19L391.2,13z
						 M427.5-20h7.4v13h2.3c3,0,4.5-1.2,5.3-5.3c1-4.1,1.8-6.8,2.3-7.7h7.6c-0.6,1.3-1.7,5.6-2.7,9.3c-0.8,3-2.1,5.2-4.4,6.2v0.1
						c2.8,1,5.8,3.9,5.8,8.1c0,3-1.1,5.3-3,6.9c-2.3,1.9-5.8,2.6-10.7,2.6c-4,0-7.5-0.3-9.9-0.7L427.5-20z M434.9,7.4
						c0.5,0.1,1.6,0.2,3.4,0.2c3.4,0,5.5-1.6,5.5-4.6c0-2.9-2.2-4.7-5.9-4.7h-2.9L434.9,7.4z M488.4-11.5l2.5-8.5h8l-10.2,33H479
						l-10.1-33h7.7l2.3,8.5L488.4-11.5z M480-6l2,7c0.5,1.9,1,4.4,1.5,6.4h0.1c0.5-2,1.1-4.4,1.7-6.4l2.1-7L480-6z M504.7,13V-5.4
						c0-10.5,4.9-15.1,13.2-15.1c8.6,0,13.7,4.8,13.7,15V13h-7.4V-6c0-5.8-2.2-8.6-6.1-8.6c-3.8,0-6,2.9-6,8.6v19L504.7,13z
						 M547.1-20h7.5V6.7h9V13h-25.3V6.7h8.9L547.1-20z M570.2,13v-33h7.5v13.8h12.3V-20h7.4v33h-7.4V0.3h-12.3V13L570.2,13z
						 M621.4,13.5c-9.7,0-16-7.4-16-17.3c0-9.4,5.7-16.8,15.5-16.8c9.6,0,16.2,6.5,16.2,17.4C637,5.9,631.5,13.5,621.4,13.5
						 M621.2,7.6c5.1,0,8-5.1,8-11c0-6.4-2.9-11.2-7.9-11.2c-5,0-8,4.6-8,11C613.2,2.8,616.1,7.6,621.2,7.6 M644.9-20h7.4v13h2.3
						c3,0,4.5-1.2,5.3-5.3c1-4.1,1.8-6.8,2.3-7.7h7.6c-0.6,1.3-1.7,5.6-2.7,9.3c-0.8,3-2.1,5.2-4.4,6.2v0.1c2.8,1,5.8,3.9,5.8,8.1
						c0,3-1.1,5.3-3,6.9c-2.3,1.9-5.8,2.6-10.7,2.6c-4,0-7.5-0.3-9.9-0.7V-20z M652.3,7.4c0.5,0.1,1.6,0.2,3.4,0.2
						c3.4,0,5.5-1.6,5.5-4.6c0-2.9-2.2-4.7-5.9-4.7h-2.9V7.4z M677-20h7.5v33H677V-20z M699.9-20h7.5V6.7h9V13H691V6.7h8.9V-20z
						 M739.4-20v13.7L750.3,13h-8.4L738.6,5c-1-2.3-1.8-4.3-2.5-6.3H736c-0.8,2.2-1.5,3.9-2.5,6.3l-3.4,7.9h-8.5L732-6.5V-20
						L739.4-20z"/>
				</g>
				<g id="g24" transform="translate(626.4335,462.0109)">
					<path id="path26" class="st2" d="M0,0h340.9v-197.2l-279.7-0.2L0,0z"/>
				</g>
				<g id="g28" transform="translate(808.1464,419.0504)">
					<path id="path30" class="st1" d="M0,0l6.2,4.6L12.5,0l-2.4,7.4l6.3,4.6H8.6l-2.4,7.5l-2.4-7.5l-7.8,0l6.3-4.6L0,0z"/>
				</g>
				<g id="g32" transform="translate(775.8505,410.3737)">
					<path id="path34" class="st1" d="M0,0l6.2,4.6L12.5,0l-2.4,7.4l6.3,4.6H8.6l-2.4,7.5l-2.4-7.5l-7.8,0l6.3-4.6L0,0z"/>
				</g>
				<g id="g36" transform="translate(758.4599,406.0719)">
					<path id="path38" class="st1" d="M0,0l-2.4-7.5l-7.8,0l6.3-4.6l-2.4-7.4L0-14.8l6.2-4.6L3.9-12l6.3,4.6H2.4L0,0z"/>
				</g>
				<g id="g40" transform="translate(749.791,358.9889)">
					<path id="path42" class="st1" d="M0,0l6.2-4.6L3.9,2.8l6.3,4.6H2.4L0,14.8l-2.4-7.5l-7.8,0l6.3-4.6l-2.4-7.4L0,0z"/>
				</g>
				<g id="g44" transform="translate(760.8515,334.0011)">
					<path id="path46" class="st1" d="M0,0l-2.4,7.5L-4.8,0l-7.8,0l6.3-4.6l-2.4-7.4l6.2,4.6l6.2-4.6L1.5-4.6L7.8,0H0z"/>
				</g>
				<g id="g48" transform="translate(784.5273,310.3253)">
					<path id="path50" class="st1" d="M0,0l-2.4,7.5L-4.8,0l-7.8,0l6.3-4.6l-2.4-7.4l6.2,4.6l6.2-4.6L1.5-4.6L7.8,0H0z"/>
				</g>
				<g id="g52" transform="translate(816.7822,301.7462)">
					<path id="path54" class="st1" d="M0,0l-2.4,7.5L-4.8,0l-7.8,0l6.3-4.6l-2.4-7.4l6.2,4.6l6.2-4.6L1.5-4.6L7.8,0H0z"/>
				</g>
				<g id="g56" transform="translate(849.037,310.3253)">
					<path id="path58" class="st1" d="M0,0l-2.4,7.5L-4.8,0l-7.8,0l6.3-4.6l-2.4-7.4l6.2,4.6l6.2-4.6L1.5-4.6L7.8,0H0z"/>
				</g>
				<g id="g60" transform="translate(872.7216,334.0011)">
					<path id="path62" class="st1" d="M0,0l-2.4,7.5L-4.8,0l-7.8,0l6.3-4.6l-2.4-7.4l6.2,4.6l6.2-4.6L1.5-4.6L7.8,0H0z"/>
				</g>
				<g id="g64" transform="translate(889.1054,366.4435)">
					<path id="path66" class="st1" d="M0,0h-7.8l-2.4,7.5L-12.6,0l-7.8,0l6.3-4.6l-2.4-7.4l6.2,4.6l6.2-4.6l-2.4,7.4L0,0z"/>
				</g>
				<g id="g68" transform="translate(864.0849,386.7873)">
					<path id="path70" class="st1" d="M0,0l6.2,4.6L12.5,0l-2.4,7.4l6.3,4.5H8.6l-2.4,7.5l-2.4-7.5l-7.8,0l6.3-4.5L0,0z"/>
				</g>
				<g id="g72" transform="translate(846.7402,429.7482)">
					<path id="path74" class="st1" d="M0,0l-2.4-7.5l-7.8,0l6.3-4.6l-2.4-7.4L0-14.8l6.2-4.6L3.9-12l6.3,4.6H2.4L0,0z"/>
				</g>
				<g id="g76" transform="translate(670.3994,264.5802)">
					<path id="path78" class="st1" d="M0,0l-61.2,197.4h-58.6l-47.9-160.3l-9.9-37l9.7-0.1h34l9.7,35.1h65.5L-48,0H0z M-92.2,148.3
						l22.8-76.9h-44.5L-92.2,148.3z M-188.7,0v37.5l-82.1,0v159.9h-44.8V0L-188.7,0z M-473,0h138.9v36.6h-94.1v46.9h76.9v36.3h-76.9
						v41h81.7v36.6H-473V0z"/>
				</g>
			</g>
		</g>
	</g>
</g>
</svg>
